<svg xmlns="http://www.w3.org/2000/svg" width="24" height="24" fill="none"><path fill="#FAFAFA" fill-rule="evenodd" d="M2 21.867 4.957 0l11.976 1.38L22 8.064 19.805 24zM14.516 8.898l1.313-6.193-9.492-.977-2.69 18.737 14.777 1.85L20.21 9.682zm-6.617 8.257c-.102-.138-1.015-.92-1.187-1.161 2.429-2.765 8.36-2.731 10.006.928-.274.103-1.5.646-1.74.784-.687-2.042-4.711-2.686-7.079-.55m4.567-7.56-1 .77L9.96 8.512 7.911 9.637l-.826-1.415 1.863-.956-1.235-1.521 1.501-1.027 1.198 1.797 2.134-1.096.643 1.32-1.923 1.056z" clip-rule="evenodd"/></svg>