<svg width="36" height="36" viewBox="0 0 36 36" fill="none" xmlns="http://www.w3.org/2000/svg">
<rect width="36" height="36" rx="12" fill="#262626"/>
<path d="M21.4241 11V6.548H21.8501V11H21.4241ZM23.0354 11V7.85H23.4614V11H23.0354ZM23.2514 7.154C23.1634 7.154 23.0894 7.124 23.0294 7.064C22.9694 7.004 22.9394 6.932 22.9394 6.848C22.9394 6.764 22.9694 6.694 23.0294 6.638C23.0894 6.578 23.1634 6.548 23.2514 6.548C23.3394 6.548 23.4134 6.576 23.4734 6.632C23.5334 6.688 23.5634 6.758 23.5634 6.842C23.5634 6.93 23.5334 7.004 23.4734 7.064C23.4174 7.124 23.3434 7.154 23.2514 7.154ZM25.6427 11.03C25.3467 11.03 25.1187 10.95 24.9587 10.79C24.7987 10.63 24.7187 10.404 24.7187 10.112V7.154H25.1447V10.088C25.1447 10.272 25.1907 10.414 25.2827 10.514C25.3787 10.614 25.5147 10.664 25.6907 10.664C25.8787 10.664 26.0347 10.61 26.1587 10.502L26.3087 10.808C26.2247 10.884 26.1227 10.94 26.0027 10.976C25.8867 11.012 25.7667 11.03 25.6427 11.03ZM24.1547 8.204V7.85H26.1047V8.204H24.1547ZM28.3109 11.03C27.9829 11.03 27.6949 10.962 27.4469 10.826C27.1989 10.686 27.0049 10.496 26.8649 10.256C26.7249 10.012 26.6549 9.734 26.6549 9.422C26.6549 9.11 26.7209 8.834 26.8529 8.594C26.9889 8.354 27.1729 8.166 27.4049 8.03C27.6409 7.89 27.9049 7.82 28.1969 7.82C28.4929 7.82 28.7549 7.888 28.9829 8.024C29.2149 8.156 29.3969 8.344 29.5289 8.588C29.6609 8.828 29.7269 9.106 29.7269 9.422C29.7269 9.442 29.7249 9.464 29.7209 9.488C29.7209 9.508 29.7209 9.53 29.7209 9.554H26.9789V9.236H29.4929L29.3249 9.362C29.3249 9.134 29.2749 8.932 29.1749 8.756C29.0789 8.576 28.9469 8.436 28.7789 8.336C28.6109 8.236 28.4169 8.186 28.1969 8.186C27.9809 8.186 27.7869 8.236 27.6149 8.336C27.4429 8.436 27.3089 8.576 27.2129 8.756C27.1169 8.936 27.0689 9.142 27.0689 9.374V9.44C27.0689 9.68 27.1209 9.892 27.2249 10.076C27.3329 10.256 27.4809 10.398 27.6689 10.502C27.8609 10.602 28.0789 10.652 28.3229 10.652C28.5149 10.652 28.6929 10.618 28.8569 10.55C29.0249 10.482 29.1689 10.378 29.2889 10.238L29.5289 10.514C29.3889 10.682 29.2129 10.81 29.0009 10.898C28.7929 10.986 28.5629 11.03 28.3109 11.03Z" fill="#F4F4F4"/>
<path d="M7.968 28V15.184H10.968V28H7.968ZM9.48 13.072C8.92 13.072 8.456 12.896 8.088 12.544C7.736 12.192 7.56 11.768 7.56 11.272C7.56 10.76 7.736 10.336 8.088 10C8.456 9.648 8.92 9.472 9.48 9.472C10.04 9.472 10.496 9.64 10.848 9.976C11.216 10.296 11.4 10.704 11.4 11.2C11.4 11.728 11.224 12.176 10.872 12.544C10.52 12.896 10.056 13.072 9.48 13.072ZM22.1775 15.04C23.2015 15.04 24.1135 15.24 24.9135 15.64C25.7295 16.04 26.3695 16.656 26.8335 17.488C27.2975 18.304 27.5295 19.36 27.5295 20.656V28H24.5295V21.04C24.5295 19.904 24.2575 19.056 23.7135 18.496C23.1855 17.936 22.4415 17.656 21.4815 17.656C20.7775 17.656 20.1535 17.8 19.6095 18.088C19.0655 18.376 18.6415 18.808 18.3375 19.384C18.0495 19.944 17.9055 20.656 17.9055 21.52V28H14.9055V15.184H17.7615V18.64L17.2575 17.584C17.7055 16.768 18.3535 16.144 19.2015 15.712C20.0655 15.264 21.0575 15.04 22.1775 15.04Z" fill="#FF6900"/>
</svg>